<?xml version="1.0" encoding="utf-8"?>
<!-- Generator: Adobe Illustrator 24.3.0, SVG Export Plug-In . SVG Version: 6.00 Build 0)  -->
<svg version="1.1" id="Layer_1" xmlns="http://www.w3.org/2000/svg" xmlns:xlink="http://www.w3.org/1999/xlink" x="0px" y="0px"
	 viewBox="0 0 677.51 507" style="enable-background:new 0 0 677.51 507;" xml:space="preserve">
<style type="text/css">
	.st0{fill:url(#SVGID_1_);}
	.st1{fill:url(#SVGID_2_);}
	.st2{fill:url(#SVGID_3_);}
	.st3{fill:url(#SVGID_4_);}
	.st4{fill:url(#SVGID_5_);}
	.st5{fill:url(#SVGID_6_);}
	.st6{fill:#523922;}
	.st7{fill:#001E73;}
	.st8{fill:url(#SVGID_7_);}
	.st9{fill:url(#SVGID_8_);}
	.st10{fill:none;stroke:#332613;stroke-width:0.7806;stroke-linecap:round;stroke-linejoin:round;stroke-miterlimit:10;}
	.st11{fill:#006DC7;}
	.st12{fill:url(#SVGID_9_);}
	.st13{fill:url(#SVGID_10_);}
	.st14{fill:url(#SVGID_11_);}
	.st15{fill:none;stroke:#540D0D;stroke-width:0.7806;stroke-linecap:round;stroke-linejoin:round;stroke-miterlimit:10;}
	.st16{fill:none;stroke:#003461;stroke-width:0.7806;stroke-linecap:round;stroke-linejoin:round;stroke-miterlimit:10;}
	.st17{fill:url(#SVGID_12_);}
	.st18{fill:#8C1616;}
	.st19{fill:url(#SVGID_13_);}
	.st20{fill:url(#SVGID_14_);}
	.st21{fill:url(#SVGID_15_);}
	.st22{fill:url(#SVGID_16_);}
	.st23{fill:#BD4F67;}
	.st24{fill:none;stroke:#001E73;stroke-width:0.8365;stroke-miterlimit:10;}
	.st25{fill:url(#SVGID_17_);}
	.st26{fill:#FFA305;}
	.st27{fill:url(#SVGID_18_);}
	.st28{fill:url(#SVGID_19_);}
	.st29{fill:none;stroke:#85253A;stroke-width:0.7806;stroke-linecap:round;stroke-linejoin:round;stroke-miterlimit:10;}
	.st30{fill:none;stroke:#005194;stroke-width:0.7806;stroke-linecap:round;stroke-linejoin:round;stroke-miterlimit:10;}
	.st31{fill:url(#SVGID_20_);}
	.st32{fill:url(#SVGID_21_);}
	.st33{fill:url(#SVGID_22_);}
	.st34{fill:url(#SVGID_23_);}
	.st35{fill:url(#SVGID_24_);}
	.st36{fill:url(#SVGID_25_);}
	.st37{fill:url(#SVGID_26_);}
	.st38{fill:url(#SVGID_27_);}
	.st39{fill:url(#SVGID_28_);}
</style>
<g>
	<linearGradient id="SVGID_1_" gradientUnits="userSpaceOnUse" x1="338.7917" y1="268.1847" x2="338.7917" y2="498.8735">
		<stop  offset="0" style="stop-color:#001E73"/>
		<stop  offset="1" style="stop-color:#001E73;stop-opacity:0"/>
	</linearGradient>
	<ellipse class="st0" cx="338.79" cy="455.44" rx="302.96" ry="51.56"/>
	<g>
		<g>
			
				<linearGradient id="SVGID_2_" gradientUnits="userSpaceOnUse" x1="133.2359" y1="-25.2499" x2="133.2359" y2="353.8578" gradientTransform="matrix(0.9761 -0.2173 0.2229 1.0014 -54.1859 79.0106)">
				<stop  offset="0" style="stop-color:#001E73"/>
				<stop  offset="1" style="stop-color:#001E73;stop-opacity:0"/>
			</linearGradient>
			<path class="st1" d="M159.12,401.41l-12.28,2.93l-40.46-194.51c-0.76-3.63,1.38-7.23,4.77-8.04l0,0
				c3.39-0.81,6.75,1.48,7.51,5.11L159.12,401.41z"/>
			
				<linearGradient id="SVGID_3_" gradientUnits="userSpaceOnUse" x1="184.618" y1="-14.1002" x2="184.618" y2="365.0076" gradientTransform="matrix(-0.9761 -0.2173 -0.2229 1.0014 784.4037 79.0106)">
				<stop  offset="0" style="stop-color:#001E73"/>
				<stop  offset="1" style="stop-color:#001E73;stop-opacity:0"/>
			</linearGradient>
			<path class="st2" d="M518.46,401.41l12.28,2.93l40.46-194.51c0.76-3.63-1.38-7.23-4.77-8.04l0,0c-3.39-0.81-6.75,1.48-7.51,5.11
				L518.46,401.41z"/>
			<linearGradient id="SVGID_4_" gradientUnits="userSpaceOnUse" x1="338.8817" y1="138.8282" x2="338.8817" y2="342.9033">
				<stop  offset="0" style="stop-color:#001E73"/>
				<stop  offset="1" style="stop-color:#001E73;stop-opacity:0"/>
			</linearGradient>
			<path class="st3" d="M554.06,230.61c-143.31,11.48-287.05,11.48-430.37,0c-0.52-2.51-1.05-5.02-1.57-7.54
				c144.36,11.57,289.15,11.57,433.51,0C555.11,225.58,554.59,228.1,554.06,230.61z M549.28,253.55
				c-140.13,11.23-280.67,11.23-420.8,0c0.52,2.51,1.05,5.02,1.57,7.54c139.08,11.14,278.57,11.14,417.65,0
				C548.23,258.57,548.76,256.06,549.28,253.55z M542.92,284.02c-135.89,10.89-272.19,10.89-408.08,0c0.52,2.51,1.05,5.02,1.57,7.54
				c134.85,10.8,270.09,10.8,404.94,0C541.87,289.05,542.4,286.53,542.92,284.02z M536.57,314.5
				c-131.66,10.55-263.71,10.55-395.37,0c0.52,2.51,1.05,5.02,1.57,7.54c130.61,10.47,261.61,10.47,392.22,0
				C535.52,319.52,536.04,317.01,536.57,314.5z"/>
		</g>
		<linearGradient id="SVGID_5_" gradientUnits="userSpaceOnUse" x1="486.5406" y1="230.3174" x2="656.9098" y2="283.53">
			<stop  offset="0.3234" style="stop-color:#001E73"/>
			<stop  offset="1" style="stop-color:#001E73;stop-opacity:0"/>
		</linearGradient>
		<path class="st4" d="M674.77,221.77l-107.89,9.06l1.56-7.5l109.06-13.32L674.77,221.77z M665.6,260.2l-103.67-6.03l-1.59,7.65
			l102.53,10.11L665.6,260.2z M655.09,305.94l-99.45-21.12l-1.29,6.2l98.54,24.36L655.09,305.94z M645.35,348.59l-96.06-33.21
			l-1.46,7.04l95.07,36.68L645.35,348.59z"/>
		
			<linearGradient id="SVGID_6_" gradientUnits="userSpaceOnUse" x1="974.5995" y1="230.3174" x2="1144.9688" y2="283.53" gradientTransform="matrix(-1 0 0 1 1165.5695 0)">
			<stop  offset="0.3234" style="stop-color:#001E73"/>
			<stop  offset="1" style="stop-color:#001E73;stop-opacity:0"/>
		</linearGradient>
		<path class="st5" d="M0,210.02l109.06,13.32l1.56,7.5L2.74,221.77L0,210.02z M14.64,271.93l102.53-10.11l-1.59-7.65L11.91,260.2
			L14.64,271.93z M24.62,315.38l98.54-24.36l-1.29-6.2l-99.45,21.12L24.62,315.38z M34.61,359.1l95.07-36.68l-1.46-7.04
			l-96.06,33.21L34.61,359.1z"/>
	</g>
	<g>
		<path class="st6" d="M236.96,252.01c0,0-5.22,70.82-29.7,88.45c-24.48,17.62-73.76,43.41-73.76,43.41l-5.22,5.87v22.52
			c0,0-9.47-4.9-8.81-15.99c0.65-11.1-3.26-18.6-3.26-18.6l9.79-5.22c0,0,10.84-10.12,24.51-26.11
			c13.67-15.99,30.32-25.78,40.76-24.48l-0.65-62.01L236.96,252.01z"/>
		<path class="st7" d="M148.38,348.79c-12.65,14.56-22.39,23.65-22.39,23.65l-9.79,5.22c0,0,3.92,7.51,3.26,18.6
			c-0.65,11.1,8.81,15.99,8.81,15.99v-22.52l5.22-5.87c0,0,9.25-4.84,21.71-11.75C148.73,365.39,147.9,355.78,148.38,348.79z"/>
		<linearGradient id="SVGID_7_" gradientUnits="userSpaceOnUse" x1="123.5346" y1="391.8332" x2="168.3092" y2="357.5937">
			<stop  offset="0" style="stop-color:#001245"/>
			<stop  offset="1" style="stop-color:#001E73;stop-opacity:0"/>
		</linearGradient>
		<path class="st8" d="M148.38,348.79c-12.65,14.56-22.39,23.65-22.39,23.65l-9.79,5.22c0,0,3.92,7.51,3.26,18.6
			c-0.65,11.1,8.81,15.99,8.81,15.99v-22.52l5.22-5.87c0,0,9.25-4.84,21.71-11.75C148.73,365.39,147.9,355.78,148.38,348.79z"/>
		<linearGradient id="SVGID_8_" gradientUnits="userSpaceOnUse" x1="182.3908" y1="349.3413" x2="170.2949" y2="240.0873">
			<stop  offset="0" style="stop-color:#8F5A28"/>
			<stop  offset="0.3338" style="stop-color:#8C5827"/>
			<stop  offset="0.5437" style="stop-color:#845426"/>
			<stop  offset="0.7194" style="stop-color:#754B23"/>
			<stop  offset="0.8754" style="stop-color:#613F1F"/>
			<stop  offset="1" style="stop-color:#4A321A"/>
		</linearGradient>
		<path class="st9" d="M218.92,253.23c0,0,7.76,50.73,5.47,67.97c-4.08,30.68-51.08,122.72-51.08,122.72l2.28,5.55l25.78,28.72
			c0,0-0.98,4.9-16.97,0c-15.99-4.9-37.21-15.67-37.21-15.67l7.83-19.91c0,0,7.83-93.02,27.09-115.86c0,0-20.39-36.23-24.32-66.58
			C157.8,260.17,194.69,242.38,218.92,253.23z"/>
		<path class="st6" d="M218.92,253.23c-24.23-10.85-61.12,6.94-61.12,6.94c1.14,8.76,3.65,18.01,6.64,26.74
			c17.61-14.37,46.49-22.41,55.92-23.59C219.53,257.21,218.92,253.23,218.92,253.23z"/>
		<path class="st7" d="M201.38,478.19l-25.78-28.72l-2.28-5.55c0,0,10.53-20.63,22.06-45.61c-17.52-0.11-27.91-5.69-33.2-9.8
			c-4.94,27.97-7.14,54.11-7.14,54.11l-7.83,19.91c0,0,21.21,10.77,37.21,15.67C200.4,483.08,201.38,478.19,201.38,478.19z"/>
		<path class="st10" d="M200.07,323.48c0,0-2.94,14.52,9.3,22.36"/>
		<path class="st11" d="M222.84,167.07c0,0,20.32,4.65,21.3,10.28c0.98,5.63-2.45,11.5-2.45,11.5s6.12,32.31-1.22,69.03
			c0,0-10.04,5.14-19.71,5.39l-1.84-10.04c0,0-41.19-0.93-63.89,18.36c-4.9,4.16-7.1-8.81,0-13.95c0,0-6.39-49.58,9.79-72.09
			c0,0-10.12-13.1,11.91-13.83C198.77,170.98,222.84,167.07,222.84,167.07z"/>
		<linearGradient id="SVGID_9_" gradientUnits="userSpaceOnUse" x1="205.1302" y1="156.8701" x2="197.5903" y2="216.0588">
			<stop  offset="0" style="stop-color:#001245"/>
			<stop  offset="1" style="stop-color:#001E73;stop-opacity:0"/>
		</linearGradient>
		<path class="st12" d="M222.84,167.07c0,0-24.07,3.92-46.1,4.65c-22.03,0.73-11.91,13.83-11.91,13.83
			c-3.11,4.32-5.38,9.65-7.03,15.42c12.43,5.91,31.5,1.61,43.42-5.26c12.73-7.34,26.76-7.18,33.78-9.18c7.02-2,9.18-5.07,9.14-9.18
			C243.16,171.72,222.84,167.07,222.84,167.07z"/>
		<linearGradient id="SVGID_10_" gradientUnits="userSpaceOnUse" x1="282.87" y1="29.5351" x2="262.9702" y2="198.0986">
			<stop  offset="0" style="stop-color:#8F5A28"/>
			<stop  offset="0.3338" style="stop-color:#8C5827"/>
			<stop  offset="0.5437" style="stop-color:#845426"/>
			<stop  offset="0.7194" style="stop-color:#754B23"/>
			<stop  offset="0.8754" style="stop-color:#613F1F"/>
			<stop  offset="1" style="stop-color:#4A321A"/>
		</linearGradient>
		<path class="st13" d="M297.62,61.93c-16.61-6.91-31.04-3.95-37.92-1.69c-2.68,0.88-5.56,0.83-8.22-0.11
			c-5.72-2.03-11.87-2.11-11.87-2.11l0.98-6.85c0,0,3.18,1.84,6.98,0c3.79-1.84,4.41-16.89,4.41-16.89s5.75-20.19,5.39-25.09
			c-0.37-4.9-10.86-9.12-22.03-9.18c-5.24-0.03-18.77,0.69-20.4,16.69c-1.63,15.99,4.24,25.46,4.24,25.46l-5.87,15.18
			c-8.53,0.51-14.65,4.03-18.58,7.3c-3.31,2.76-7.25,4.65-11.49,5.43c-9.69,1.76-23.23,7.22-31.86,23.33c0,0-39.17,63.64-18.6,77.11
			c11.28,7.39,27.35,1.28,39.56-5.73l-0.31,12.17c25.13,6.2,62.34,7.18,65.28,1.96c2.94-5.22,20.24-39.17,20.24-39.17
			c12.4-8.49,17.3-29.47,17.3-29.47c24.79,2.39,62.18-19.82,62.18-19.82c28.72,11.75,81.1-9.14,81.1-9.14V61.93H297.62z"/>
		<path class="st6" d="M223.44,34.16l-5.05,6.48c0.46,0.97,0.78,1.5,0.78,1.5l-2.21,5.7c7.22,19,23.62,3.32,23.62,3.32
			C225.26,46.41,223.44,34.16,223.44,34.16z"/>
		<path class="st6" d="M188.2,127.9l-2.82-22.03c0,0-1.47,6.98-10.89,11.02c0,0-10.53,17.75-21.66,22.28L188.2,127.9z"/>
		<path class="st6" d="M196.89,148.71l-24.58,16.06l-0.31,12.17c25.13,6.2,62.34,7.18,65.28,1.96c0.15-0.27,0.36-0.64,0.58-1.07
			C218.51,173.53,196.89,148.71,196.89,148.71z"/>
		<polygon class="st6" points="188.2,127.9 196.89,148.71 183.99,157.14 183.99,129.24 		"/>
		<path class="st10" d="M182.45,87.83c0,0-6.96,17.06-20.92,14.56"/>
		<path class="st10" d="M202.39,70.36c0,0,13.44-4.03,21.73,1.79"/>
		<path class="st10" d="M233.98,72.15c0,0,5.26-3.97,17.99,0.8"/>
		<path class="st10" d="M296.02,71.77c0,0-3.01,9-21.86,11.21"/>
		<path class="st6" d="M277.55,94.37c0,0-0.12,8.45-2.73,15.9c24.79,2.39,62.18-19.82,62.18-19.82
			C301.33,102.2,277.55,94.37,277.55,94.37z"/>
		<radialGradient id="SVGID_11_" cx="478.2029" cy="61.9923" r="69.1424" gradientUnits="userSpaceOnUse">
			<stop  offset="0" style="stop-color:#C91616"/>
			<stop  offset="0.1645" style="stop-color:#C11616"/>
			<stop  offset="0.4256" style="stop-color:#AA1616"/>
			<stop  offset="0.7487" style="stop-color:#841616"/>
			<stop  offset="0.9694" style="stop-color:#671616"/>
		</radialGradient>
		<path class="st14" d="M428.83,58.75l-11.4-2.83c-1.49-0.37-2.92,0.76-2.92,2.29v30.38c0,1.55,1.48,2.68,2.98,2.27l7.02-1.92
			c2.61-0.71,5.38-0.1,7.47,1.62c3.79,3.13,10.37,7.8,16.07,7.97c8.32,0.25,8.32-6.36,8.32-6.36s18.24,0.73,20.19-10.4
			c1.96-11.14-5.53-27.67-16.4-29.99C443.51,48.22,428.83,58.75,428.83,58.75z"/>
		<path class="st15" d="M454.32,80.09c0,0-3.43,5.87-7.18,7.18"/>
		<line class="st15" x1="455.55" y1="89.55" x2="451.07" y2="84.42"/>
		<path class="st16" d="M215.62,186.53c0,0-1.84,5.39,0,11.38c1.84,6-2.08,13.83-2.08,13.83l1.29,16.66"/>
		<path class="st16" d="M198.85,220.67c0,0-11.38,8.32-19.46,9.42"/>
		<linearGradient id="SVGID_12_" gradientUnits="userSpaceOnUse" x1="214.0829" y1="267.5923" x2="236.0902" y2="234.8497">
			<stop  offset="0" style="stop-color:#001245"/>
			<stop  offset="1" style="stop-color:#001E73;stop-opacity:0"/>
		</linearGradient>
		<path class="st17" d="M218.92,253.23l1.84,10.04c9.67-0.24,19.71-5.39,19.71-5.39c0.02-0.12,0.05-0.25,0.07-0.37
			c-16.86-5.19-24.43-22.47-24.43-22.47L218.92,253.23z"/>
		<path class="st10" d="M195.73,149.46c0,0-17.27,11.63-22.03,14.39"/>
		<path class="st10" d="M224.12,36.58c0,0,2.66,8.62,11.32,12.48"/>
		<path class="st18" d="M257.04,7.98c-1.81-4.37-11.47-7.93-21.71-7.98c-5.24-0.03-18.77,0.69-20.4,16.69
			c-1.63,15.99,4.24,25.46,4.24,25.46c6.17-2.31,6.3-8.85,6.3-8.85c-6.52-2.03-6.09-8.99-3.33-12.47c0.69-0.87,1.53-1.34,2.41-1.56
			c2.81-0.7,5.49,1.59,5.64,4.48c0.13,2.66,0.51,5.86,1.53,5.78c0.97-0.08,2.74-5.44,4.12-10.19c1.3-4.45,4.91-7.84,9.45-8.81
			C249.16,9.69,253.76,8.69,257.04,7.98z"/>
		<radialGradient id="SVGID_13_" cx="256.183" cy="103.7429" r="72.4816" gradientUnits="userSpaceOnUse">
			<stop  offset="0" style="stop-color:#C91616"/>
			<stop  offset="0.1645" style="stop-color:#C11616"/>
			<stop  offset="0.4256" style="stop-color:#AA1616"/>
			<stop  offset="0.7487" style="stop-color:#841616"/>
			<stop  offset="0.9694" style="stop-color:#671616"/>
		</radialGradient>
		<path class="st19" d="M195.98,122.99c0,0,17.27-27.75,39.37-21.67c22.1,6.09,23.89,29.36,14.39,40.06
			c-9.5,10.7-21.06,2.22-21.06,2.22s-6.7,8.93-20.18,1.58l-5.62,4.46c-2.48,1.97-6.1,1.49-7.96-1.08
			c-3.32-4.57-7.79-12.21-8.58-20.99c-0.17-1.92,1.27-3.62,3.19-3.84L195.98,122.99z"/>
		<path class="st15" d="M229.78,141.69c0,0,4.16-4.49,5.87-9.71"/>
		<path class="st15" d="M230.92,130.01c0,0,3.02,1.96,9.55,3.02"/>
		<linearGradient id="SVGID_14_" gradientUnits="userSpaceOnUse" x1="194.4039" y1="150.5963" x2="239.3735" y2="128.1602">
			<stop  offset="0" style="stop-color:#4F1111"/>
			<stop  offset="1" style="stop-color:#671616;stop-opacity:0"/>
		</linearGradient>
		<path class="st20" d="M223.68,147.14c-7.68,0.11-18.02-4.61-20.27-12.18c0,0-5.53,6.69-11.83,8.4c1.13,1.99,2.28,3.77,3.33,5.21
			c1.86,2.56,5.48,3.05,7.96,1.08l5.62-4.46C215.26,148.87,220.32,148.46,223.68,147.14L223.68,147.14z"/>
		<linearGradient id="SVGID_15_" gradientUnits="userSpaceOnUse" x1="414.5064" y1="88.0905" x2="440.3954" y2="88.0905">
			<stop  offset="0" style="stop-color:#4F1111"/>
			<stop  offset="1" style="stop-color:#671616;stop-opacity:0"/>
		</linearGradient>
		<path class="st21" d="M428.06,80.62c-2.63-1.75-8.92,0.34-13.56,2.31v5.65c0,1.55,1.48,2.68,2.98,2.27l7.02-1.92
			c2.61-0.71,5.38-0.1,7.47,1.62c2.14,1.77,5.17,4,8.42,5.66C436.92,94.03,432.4,83.52,428.06,80.62z"/>
	</g>
	<g>
		<linearGradient id="SVGID_16_" gradientUnits="userSpaceOnUse" x1="391.4403" y1="313.3105" x2="336.1304" y2="403.4451">
			<stop  offset="0.0206" style="stop-color:#ED9898"/>
			<stop  offset="1" style="stop-color:#ED5E98"/>
		</linearGradient>
		<path class="st22" d="M433.18,322.32l-64.38,29.13c0,0-11.02,31.09-25.46,47c-14.44,15.91-33.54,42.35-33.54,42.35v7
			c0,2.35-1.79,4.31-4.13,4.52c-3.78,0.33-9.63,0.87-15.21,1.46c-8.19,0.86-20.38,5.14-30.86,1.8c-1.66-0.53-1.73-2.86-0.14-3.56
			l34.42-15.17c2.06-0.91,3.62-2.65,4.3-4.8c4.95-15.75,26.16-82.07,37.57-98.22c12.97-18.36,31.58-43.08,57.03-55.08
			C392.79,278.74,435.39,287.07,433.18,322.32z"/>
		<path class="st23" d="M392.79,278.74c-7.26,3.42-13.95,7.9-20.12,12.95c14.04,3.26,43.95,12.77,49.98,35.39l10.53-4.77
			C435.39,287.07,392.79,278.74,392.79,278.74z"/>
		<path class="st24" d="M356,342.96c0,0-4.73,5.39-17.3,3.1"/>
		<path class="st18" d="M310.66,394.17c-5.69,16.49-10.45,31.43-12.47,37.87c-0.67,2.15-2.24,3.89-4.3,4.8L259.47,452
			c-1.59,0.7-1.51,3.03,0.14,3.56c10.48,3.34,22.67-0.94,30.86-1.8c5.58-0.59,11.42-1.12,15.21-1.46c2.34-0.21,4.13-2.17,4.13-4.52
			v-7c0,0,19.09-26.44,33.54-42.35c0.2-0.21,0.39-0.44,0.58-0.66C325.16,401.28,315.18,397.22,310.66,394.17z"/>
		<linearGradient id="SVGID_17_" gradientUnits="userSpaceOnUse" x1="446.2241" y1="411.1497" x2="525.4776" y2="411.1497">
			<stop  offset="0.0206" style="stop-color:#ED9898"/>
			<stop  offset="1" style="stop-color:#ED5E98"/>
		</linearGradient>
		<path class="st25" d="M446.24,339.45c0,0-1.06,46.51,14.61,67.56c15.67,21.05,43.33,48.22,43.33,48.22s-4.41,8.81-1.47,12.48
			c2.94,3.67,7.34,3.92,5.87,8.32c-1.47,4.41-5.39,11.02-1.22,12.73c4.16,1.71,11.02,0,16.4,0c5.39,0-2.94-25.7-10.04-35.98
			c0,0-6.29-51.65-27.87-66.58l15.63-50.67C501.48,335.53,468.6,327.21,446.24,339.45z"/>
		<path class="st24" d="M480.67,392.57c0,0-1.47,10.61-13.06,9.47"/>
		<path class="st18" d="M504.35,414.37c-1.72,6.41-6.97,17.92-22.42,17.69c11.73,12.85,22.24,23.18,22.24,23.18
			s-4.41,8.81-1.47,12.48c2.94,3.67,7.34,3.92,5.87,8.32c-1.47,4.41-5.39,11.02-1.22,12.73c4.16,1.71,11.02,0,16.4,0
			c5.39,0-2.94-25.7-10.04-35.98C513.72,452.79,511.3,432.99,504.35,414.37z"/>
		<path class="st23" d="M497.99,346.86l3.49-11.33c0,0-32.88-8.32-55.24,3.92c0,0-0.21,9.34,0.96,21.53
			C466.15,346.01,487.88,345.88,497.99,346.86z"/>
		<path class="st26" d="M498.3,260.9c0,0,19.85,28.24,7.77,76.55c-0.5,1.99-2.38,3.31-4.42,3.14c-9.61-0.76-37.04-2.08-57.69,5.47
			l1.22-26.44l-10.53,5.83c-1.69,0.94-3.81,0.24-4.64-1.51c-4.55-9.67-19.73-37.74-44.57-42.99c0,0,19.09-12.97,38.68-18.11
			c0,0-4.16-8.08-1.22-8.57c2.94-0.49,16.65,2.45,16.65,2.45L498.3,260.9z"/>
		<linearGradient id="SVGID_18_" gradientUnits="userSpaceOnUse" x1="465.8237" y1="269.6255" x2="450.8989" y2="321.7162">
			<stop  offset="0" style="stop-color:#C46A16"/>
			<stop  offset="1" style="stop-color:#FF8A1C;stop-opacity:0"/>
		</linearGradient>
		<path class="st27" d="M508.38,288.69c-3.19-17.96-10.09-27.79-10.09-27.79l-58.75-4.18c0,0-13.71-2.94-16.65-2.45
			c-2.94,0.49,1.22,8.57,1.22,8.57c8.08,13.05,14.28,17.79,22.11,22.68c7.83,4.9,15.13-2.45,31.06-4.57
			C491.82,279.01,502.57,280.62,508.38,288.69z"/>
		<linearGradient id="SVGID_19_" gradientUnits="userSpaceOnUse" x1="294.8807" y1="217.6018" x2="541.8427" y2="217.6018">
			<stop  offset="0.0206" style="stop-color:#ED9898"/>
			<stop  offset="1" style="stop-color:#ED5E98"/>
		</linearGradient>
		<path class="st28" d="M526.94,199.43c-8.5-30.05-37.17-33.34-45.76-33.64c-10.65-3.98-34.53-11.41-51.91-5.64
			c0,0-39.04-0.49-54.46,14.56c0,0-68.91-3.92-79.92,75.64l16.65,3.92l24.23-37.21c0,0,27.17,3.43,57.03-4.16
			c0,0,4.16,14.52,20.64,21.54l21.38,27.74c0,0,23.8,19.6,56.75,4.91c26.39,14.73,39.19,10.38,42.96,5.29
			C554.63,245.24,526.94,199.43,526.94,199.43z"/>
		<path class="st23" d="M449.5,269.71c10.13,3.36,24.84,5.05,42.06-2.62c0,0-16.52-9.27-25.46-17.84
			C466.11,249.25,457.87,260.73,449.5,269.71z"/>
		<path class="st23" d="M475.65,235.54l11.38-16.4c0,0,3.06,21.05,20.56,23.38C507.6,242.52,490.71,239.71,475.65,235.54z"/>
		<path class="st29" d="M490.46,182.87c0,0-9.95,21.21,15.18,27.74"/>
		<path class="st23" d="M392.79,212.9c0,0,4.16,14.52,20.64,21.54l10.68,13.87c16.8-3.89,25.38-18.43,25.38-18.43
			C415.23,244.72,392.79,212.9,392.79,212.9z"/>
		<path class="st23" d="M318.93,242.9c-5.71,1.65-13.89,3.06-23.12,1.75c-0.34,1.86-0.65,3.75-0.93,5.7l16.65,3.92L318.93,242.9z"/>
		<path class="st29" d="M371.74,188.42c0,0,16.28,9.67,28.76-2.33"/>
		<path class="st23" d="M417.39,160.67c-9.1,0.76-21.76,2.62-31.91,7.14c6.52-2.97,18.91,0.63,25.92,14.73
			c7.02,14.12,23.66,12.37,30.84,5.25L417.39,160.67z"/>
		<path class="st23" d="M447.81,162.53l9,5.69c0,0,5.83-3.96,24.37-2.43c-7.47-2.79-21.46-7.27-35.14-7.7L447.81,162.53z"/>
		<line class="st29" x1="446.57" y1="192.74" x2="439.58" y2="184.88"/>
		<path class="st11" d="M290.57,247.01l25.84,6.09c1.28,0.3,1.94,1.72,1.35,2.9l-2.56,5.04c0,0,10.44,16.48,5.39,28.72
			c-5.06,12.24-11.1,4.08-11.1,4.08s-5.87,12.4-19.09,8.32c-13.22-4.08-21.38-14.36-16.81-28.23c4.57-13.87,13.38-19.66,13.38-19.66
			l0.52-5.06C287.64,247.69,289.09,246.66,290.57,247.01z"/>
		<path class="st30" d="M309.64,292.37c0.24-2.28-0.65-7.1-4.24-10.12"/>
		<line class="st30" x1="309.07" y1="278.74" x2="301.48" y2="285.76"/>
		<path class="st11" d="M476.99,235.95L466.42,251c-0.62,0.89-1.86,1.07-2.71,0.4l-6.85-5.38c0,0-16.89,1.84-23.38-7.34
			c0,0-12.61-1.47-12.85-11.63c-0.24-10.16,3.55-30.23,24.97-27.78c19.32,2.21,23.6,17.66,23.81,26.86
			c0.04,1.79,0.97,3.42,2.48,4.39l4.62,2.97C477.33,234.02,477.56,235.14,476.99,235.95z"/>
		<linearGradient id="SVGID_20_" gradientUnits="userSpaceOnUse" x1="289.245" y1="263.9421" x2="321.9058" y2="263.9421">
			<stop  offset="0" style="stop-color:#001245"/>
			<stop  offset="1" style="stop-color:#001E73;stop-opacity:0"/>
		</linearGradient>
		<path class="st31" d="M321.91,280.94c-0.52-10.1-6.71-19.9-6.71-19.9l2.56-5.04c0.6-1.17-0.06-2.6-1.35-2.9l-25.84-6.09
			c-0.46-0.11-0.91-0.07-1.33,0.06c4.17,2.4,11.64,7.41,16,14.54C305.24,261.61,318.09,265.43,321.91,280.94z"/>
		<linearGradient id="SVGID_21_" gradientUnits="userSpaceOnUse" x1="459.0652" y1="267.7081" x2="452.9197" y2="237.5657">
			<stop  offset="0" style="stop-color:#001245"/>
			<stop  offset="1" style="stop-color:#001E73;stop-opacity:0"/>
		</linearGradient>
		<path class="st32" d="M466.42,251l2.92-4.16c-2.9-1.74-4.69-4.31-5.75-6.42c-0.82-1.63-2.86-2.25-4.37-1.24
			c-5.56,3.71-14.04,6.38-19.6,4.37c7.52,3.5,17.24,2.45,17.24,2.45l6.85,5.39C464.56,252.07,465.79,251.89,466.42,251z"/>
		<linearGradient id="SVGID_22_" gradientUnits="userSpaceOnUse" x1="451.4114" y1="308.195" x2="427.9997" y2="324.2906">
			<stop  offset="0" style="stop-color:#C46A16"/>
			<stop  offset="1" style="stop-color:#FF8A1C;stop-opacity:0"/>
		</linearGradient>
		<path class="st33" d="M428.7,321.25c0.51,1,0.95,1.91,1.32,2.69c0.82,1.75,2.94,2.45,4.64,1.51l10.53-5.83
			c0,0-0.57-6.85,1.06-15.01C446.24,304.61,439.79,315.3,428.7,321.25z"/>
		<path class="st29" d="M531.59,262.1c0,0,0.26,5.63-6.11,6.12"/>
		<g>
			<linearGradient id="SVGID_23_" gradientUnits="userSpaceOnUse" x1="324.7291" y1="258.9774" x2="338.6297" y2="234.9805">
				<stop  offset="0" style="stop-color:#001E73"/>
				<stop  offset="1" style="stop-color:#001E73;stop-opacity:0"/>
			</linearGradient>
			<path class="st34" d="M326.13,258.22c-0.42,0-0.84-0.11-1.23-0.35c-1.1-0.68-1.44-2.12-0.77-3.22l13.08-21.24
				c0.68-1.1,2.12-1.44,3.22-0.77c1.1,0.68,1.44,2.12,0.77,3.22l-13.08,21.24C327.69,257.82,326.92,258.22,326.13,258.22z"/>
		</g>
		<linearGradient id="SVGID_24_" gradientUnits="userSpaceOnUse" x1="331.52" y1="263.2539" x2="358.736" y2="232.5262">
			<stop  offset="0" style="stop-color:#001E73"/>
			<stop  offset="1" style="stop-color:#001E73;stop-opacity:0"/>
		</linearGradient>
		<path class="st35" d="M330.05,266.28c-0.58,0-1.15-0.21-1.6-0.64c-0.94-0.88-0.99-2.37-0.1-3.31l30.03-31.95
			c0.88-0.94,2.37-0.99,3.31-0.1c0.94,0.88,0.99,2.37,0.1,3.31l-30.03,31.95C331.29,266.04,330.67,266.28,330.05,266.28z"/>
		<g>
			<linearGradient id="SVGID_25_" gradientUnits="userSpaceOnUse" x1="295.9141" y1="202.8498" x2="332.5923" y2="160.3187">
				<stop  offset="0" style="stop-color:#001E73"/>
				<stop  offset="1" style="stop-color:#001E73;stop-opacity:0"/>
			</linearGradient>
			<path class="st36" d="M295.98,211.32c-0.21,0-0.43-0.03-0.64-0.09c-1.24-0.35-1.97-1.65-1.61-2.89
				c12.75-45.01,42.87-49.8,44.15-49.99c1.27-0.18,2.47,0.71,2.65,1.99c0.18,1.28-0.7,2.46-1.98,2.65
				c-0.31,0.05-28.44,4.73-40.31,46.63C297.94,210.65,297,211.32,295.98,211.32z"/>
		</g>
		<g>
			<linearGradient id="SVGID_26_" gradientUnits="userSpaceOnUse" x1="286.2597" y1="202.4921" x2="299.9164" y2="169.3258">
				<stop  offset="0" style="stop-color:#001E73"/>
				<stop  offset="1" style="stop-color:#001E73;stop-opacity:0"/>
			</linearGradient>
			<path class="st37" d="M286.8,205.45c-0.11,0-0.21-0.01-0.32-0.02c-1.28-0.17-2.18-1.35-2.01-2.63
				c3.26-24.05,15.62-35.79,16.15-36.28c0.94-0.88,2.43-0.83,3.31,0.12c0.88,0.95,0.83,2.42-0.12,3.3l0,0
				c-0.12,0.11-11.68,11.19-14.7,33.48C288.96,204.59,287.96,205.45,286.8,205.45z"/>
		</g>
		<g>
			<linearGradient id="SVGID_27_" gradientUnits="userSpaceOnUse" x1="278.8062" y1="199.1661" x2="281.7326" y2="180.2417">
				<stop  offset="0" style="stop-color:#001E73"/>
				<stop  offset="1" style="stop-color:#001E73;stop-opacity:0"/>
			</linearGradient>
			<path class="st38" d="M278.85,200.18c-1.29,0-2.34-1.05-2.34-2.34c0-11.4,3.96-20.08,4.13-20.44c0.54-1.17,1.94-1.68,3.1-1.14
				c1.17,0.54,1.69,1.93,1.14,3.11c-0.04,0.08-3.7,8.15-3.7,18.48C281.19,199.14,280.14,200.18,278.85,200.18z"/>
		</g>
		<linearGradient id="SVGID_28_" gradientUnits="userSpaceOnUse" x1="442.8224" y1="182.9216" x2="424.0932" y2="140.7808">
			<stop  offset="0.0206" style="stop-color:#ED9898"/>
			<stop  offset="1" style="stop-color:#ED5E98"/>
		</linearGradient>
		<path class="st39" d="M408.87,153.41l7.26,16.89c0,0,1.27,13.19,12.32,16.89c8.04,2.69,21.05-3.63,22.19-21.7
			c0,0,1.02-11.71-1.67-18.69C446.28,139.83,410.26,146.07,408.87,153.41z"/>
		<path class="st7" d="M442.32,162.63c0,0-8.32-0.98-12.4-12.24c0,0-14.2,7.18-26.93,4.73c-12.73-2.45-5.55-14.85,1.96-14.03
			c0,0,14.2-13.87,26.76-9.63c0,0,19.11-10.61,19.75,23.5c0.08,4.41-0.82,10.53-0.82,10.53s-0.73-12.08-4.81-12.81
			C441.89,151.97,439.87,156.76,442.32,162.63z"/>
		<path class="st30" d="M433.25,236.46c0,0-0.8-3.86,0.8-9.73"/>
		<path class="st30" d="M429.14,223.32c0,0,3.3,3.79,10.4,4.9"/>
	</g>
</g>
</svg>
