<?xml version="1.0" encoding="utf-8"?>
<!-- Generator: Adobe Illustrator 24.3.0, SVG Export Plug-In . SVG Version: 6.00 Build 0)  -->
<svg version="1.1" id="Layer_1" xmlns="http://www.w3.org/2000/svg" xmlns:xlink="http://www.w3.org/1999/xlink" x="0px" y="0px"
	 viewBox="0 0 89.41 109" style="enable-background:new 0 0 89.41 109;" xml:space="preserve">
<style type="text/css">
	.st0{fill:#00C3C3;}
</style>
<g>
	<g>
		<path class="st0" d="M89.19,63.96l-8.04-20.1l8.04-20.1c0.39-0.98,0.27-2.1-0.32-2.98c-0.59-0.88-1.58-1.4-2.64-1.4H48.96v-7.45
			c0-1.76-1.43-3.19-3.19-3.19H6.39V3.19C6.39,1.43,4.96,0,3.19,0S0,1.43,0,3.19c0,13.35,0,91.28,0,102.61
			c0,1.76,1.43,3.19,3.19,3.19s3.19-1.43,3.19-3.19V57.69h25.55v7.45c0,1.74,1.42,3.19,3.19,3.19h51.09c1.06,0,2.05-0.53,2.64-1.4
			C89.46,66.06,89.58,64.94,89.19,63.96z M42.58,51.31c-3.66,0-32.25,0-36.19,0V15.12h36.19C42.58,18.77,42.58,47.36,42.58,51.31z
			 M42.84,61.95l5.19-5.19c0.61-0.61,0.94-1.45,0.94-2.26V25.76H81.5l-6.76,16.91c-0.3,0.76-0.3,1.61,0,2.37l6.76,16.91H42.84z"/>
	</g>
</g>
</svg>
