<?xml version="1.0" encoding="utf-8"?>
<!-- Generator: Adobe Illustrator 24.3.0, SVG Export Plug-In . SVG Version: 6.00 Build 0)  -->
<svg version="1.1" id="Layer_1" xmlns="http://www.w3.org/2000/svg" xmlns:xlink="http://www.w3.org/1999/xlink" x="0px" y="0px"
	 viewBox="0 0 107.22 107.22" style="enable-background:new 0 0 107.22 107.22;" xml:space="preserve">
<style type="text/css">
	.st0{fill:#00C3C3;}
</style>
<g>
	<g>
		<g>
			<path class="st0" d="M23,103.91l-3.15-4.44c-0.67-0.94-1.98-1.16-2.92-0.5c-0.94,0.67-1.16,1.98-0.5,2.92l3.15,4.44
				c0.41,0.58,1.05,0.88,1.71,0.88c0.42,0,0.84-0.13,1.21-0.39C23.45,106.16,23.67,104.85,23,103.91z"/>
		</g>
	</g>
	<g>
		<g>
			<path class="st0" d="M47.16,104.69l-3.43-16.35c-1.67-7.95-6.3-14.83-13.04-19.36l-7.33-4.93c-2.94-1.97-6.89-1.55-9.34,0.95
				V39.77c0-3.31-2.26-6.13-5.49-6.84c-2.09-0.46-4.24,0.04-5.91,1.38C0.96,35.64,0,37.64,0,39.77v32.47c0,4.25,1.3,8.34,3.76,11.8
				l3.73,5.26c0.41,0.58,1.05,0.88,1.71,0.88c0.42,0,0.84-0.13,1.21-0.39c0.94-0.67,1.16-1.98,0.5-2.92l-3.73-5.26
				c-1.96-2.76-2.99-6-2.99-9.38V39.77c0-0.86,0.38-1.66,1.06-2.2c0.67-0.54,1.54-0.74,2.38-0.55c1.3,0.29,2.21,1.42,2.21,2.75
				v25.76c0,3.65,1.34,7.12,3.77,9.82c0.1,0.13,0.21,0.25,0.32,0.37c1.39,1.47,3.03,3.21,4.57,4.85l2.16,2.29
				c0.01,0.01,0.01,0.01,0.02,0.02c1.84,1.96,3.2,3.41,3.23,3.44c0.79,0.84,2.12,0.88,2.96,0.09c0.84-0.79,0.88-2.12,0.09-2.96
				c-0.04-0.04-2.49-2.65-5.29-5.63l-4.8-5.11c-0.01-0.01-0.02-0.03-0.04-0.04c-1.13-1.35-1.11-3.3,0.07-4.63
				c1.04-1.18,2.82-1.4,4.12-0.53l7.32,4.93c5.83,3.92,9.84,9.87,11.28,16.75l3.43,16.35c0.21,0.99,1.08,1.66,2.05,1.66
				c0.14,0,0.29-0.01,0.43-0.05C46.67,106.94,47.4,105.82,47.16,104.69z"/>
		</g>
	</g>
	<g>
		<g>
			<path class="st0" d="M15.51,93.37l-0.01-0.02c-0.67-0.94-1.98-1.16-2.92-0.49c-0.94,0.67-1.16,1.98-0.49,2.92l0.01,0.02
				c0.41,0.57,1.05,0.88,1.71,0.88c0.42,0,0.85-0.13,1.21-0.39C15.97,95.62,16.19,94.31,15.51,93.37z"/>
		</g>
	</g>
	<g>
		<g>
			<path class="st0" d="M104.59,34.31c-1.67-1.34-3.82-1.84-5.91-1.38c-3.23,0.72-5.49,3.53-5.49,6.84v25.23
				c-2.45-2.5-6.4-2.93-9.34-0.95l-7.33,4.93c-6.74,4.53-11.37,11.41-13.04,19.36l-3.43,16.35c-0.24,1.13,0.49,2.24,1.62,2.48
				c0.14,0.03,0.29,0.05,0.43,0.05c0.97,0,1.84-0.68,2.05-1.66l3.43-16.35c1.44-6.88,5.45-12.82,11.28-16.75l7.33-4.93
				c1.31-0.88,3.08-0.65,4.12,0.53c1.18,1.33,1.19,3.28,0.07,4.63c-0.01,0.01-0.03,0.03-0.04,0.04c0,0-10.05,10.7-10.09,10.74
				c-0.79,0.84-0.75,2.17,0.09,2.96c0.84,0.79,2.17,0.75,2.96-0.09c0.03-0.03,8.59-9.13,9.98-10.6c0.11-0.12,0.22-0.24,0.32-0.37
				c2.43-2.7,3.77-6.18,3.77-9.82V39.77c0-1.33,0.91-2.47,2.21-2.75c0.84-0.19,1.71,0.02,2.38,0.55c0.67,0.54,1.06,1.34,1.06,2.2
				v32.47c0,3.38-1.03,6.62-2.99,9.38l-15.82,22.29c-0.67,0.94-0.45,2.25,0.5,2.92c0.37,0.26,0.79,0.39,1.21,0.39
				c0.66,0,1.3-0.31,1.71-0.88l15.82-22.29c2.46-3.47,3.76-7.55,3.76-11.8V39.77C107.22,37.64,106.26,35.64,104.59,34.31z"/>
		</g>
	</g>
	<g>
		<g>
			<path class="st0" d="M80.13,40.14l-3.73-0.89v-0.67c2.42-1.7,4.01-4.51,4.01-7.68v-4.84c0-5.17-4.2-9.37-9.37-9.37
				c-2.32,0-4.44,0.85-6.08,2.25c-1.82-4.47-6.21-7.62-11.33-7.62c-5.12,0-9.51,3.16-11.33,7.64c-1.64-1.41-3.77-2.27-6.1-2.27
				c-5.17,0-9.37,4.2-9.37,9.37v0.32v4.52c0,3.17,1.59,5.98,4.01,7.68v0.67l-3.73,0.89c-4.45,1.06-7.56,5-7.56,9.57v3.91
				c0,1.16,0.94,2.09,2.09,2.09h9.62c-0.01,0.25-0.03,0.51-0.03,0.77v7.53c0,1.16,0.94,2.09,2.09,2.09h12.59
				c1.16,0,2.09-0.94,2.09-2.09c0-1.16-0.94-2.09-2.09-2.09h-2.16v-4.33c0-1.16-0.94-2.09-2.09-2.09c-1.16,0-2.09,0.94-2.09,2.09
				v4.33h-4.14v-5.44c0-4.04,2.74-7.52,6.67-8.46l5.75-1.38l3.85,8.75c0.33,0.76,1.09,1.25,1.92,1.25h0c0.83,0,1.58-0.49,1.92-1.25
				l3.84-8.74l5.73,1.37c3.93,0.94,6.68,4.42,6.68,8.46v5.43h-4.14v-4.33c0-1.16-0.94-2.09-2.09-2.09s-2.09,0.94-2.09,2.09v4.33
				h-2.37c-1.16,0-2.09,0.94-2.09,2.09c0,1.16,0.94,2.09,2.09,2.09h12.8c1.16,0,2.09-0.94,2.09-2.09v-7.52
				c0-0.26-0.01-0.52-0.03-0.77h9.65c1.16,0,2.09-0.94,2.09-2.09v-3.91C87.69,45.13,84.58,41.2,80.13,40.14z M71.04,20.87
				c2.74,0,5,2.14,5.17,4.84H73.3c-2.45,0-4.86-0.59-7.02-1.71C67.08,22.16,68.91,20.87,71.04,20.87z M65.86,30.59
				c0-0.1,0.01-0.2,0.01-0.31v-1.86c2.35,0.97,4.88,1.48,7.44,1.48h2.92v1c0,2.86-2.33,5.18-5.18,5.18c-2.86,0-5.18-2.33-5.18-5.18
				V30.59z M45.59,23.54L45.59,23.54c0-4.44,3.61-8.04,8.04-8.04c4,0,7.33,2.94,7.94,6.77l-3.53-2.07
				c-0.88-0.52-2.01-0.32-2.67,0.46c-1.72,2.06-4.25,3.24-6.93,3.24h-2.86L45.59,23.54L45.59,23.54z M36.2,20.87
				c2.13,0,3.96,1.29,4.76,3.13c-2.17,1.12-4.57,1.71-7.02,1.71h-2.91C31.2,23.01,33.46,20.87,36.2,20.87z M31.02,29.9h2.92
				c2.56,0,5.09-0.51,7.45-1.48v2.48c0,2.86-2.33,5.18-5.18,5.18c-2.86,0-5.18-2.33-5.18-5.18L31.02,29.9L31.02,29.9z M41.13,43.95
				c-4.12,0.99-7.36,3.86-8.9,7.58h-8.49v-1.82c0-2.63,1.78-4.89,4.34-5.5l5.33-1.27c0.94-0.23,1.61-1.07,1.61-2.04v-0.7
				c0.39,0.05,0.78,0.08,1.17,0.08c0.4,0,0.78-0.03,1.17-0.08v0.6c0,0.03,0,0.06,0,0.09c0,0.69,0.34,1.36,0.96,1.76
				c0.23,0.15,0.49,0.25,0.74,0.3l3.12,0.75L41.13,43.95z M46.97,40.7c-0.54-0.24-1.1-0.43-1.68-0.57l-3.74-0.9v-0.65
				c0.68-0.47,1.29-1.03,1.81-1.66c0.94,1.44,2.16,2.67,3.6,3.61L46.97,40.7L46.97,40.7z M56.07,43.77l-2.45,5.57l-2.46-5.59v-1.49
				c0.8,0.16,1.63,0.25,2.47,0.25c0.83,0,1.65-0.08,2.43-0.24V43.77z M53.63,38.33c-4.44,0-8.04-3.61-8.04-8.04v-2.21h2.86
				c3.32,0,6.48-1.23,8.9-3.44l4.32,2.54v3.42C61.51,34.89,57.97,38.33,53.63,38.33z M60.26,40.7v-0.14
				c1.45-0.94,2.69-2.17,3.63-3.62c0.53,0.62,1.13,1.17,1.8,1.64v0.65l-3.74,0.9C61.36,40.27,60.8,40.46,60.26,40.7z M83.5,51.52
				h-8.52c-1.54-3.72-4.78-6.59-8.91-7.57l-1.05-0.25l3.14-0.75c0.26-0.05,0.52-0.15,0.75-0.3c0.62-0.4,0.96-1.07,0.96-1.76
				c0-0.02,0-0.03,0-0.05v-0.64c0.38,0.05,0.77,0.08,1.17,0.08c0.4,0,0.79-0.03,1.17-0.08v0.7c0,0.97,0.67,1.81,1.61,2.04l5.33,1.27
				c2.56,0.61,4.34,2.87,4.34,5.5V51.52L83.5,51.52z"/>
		</g>
	</g>
	<g>
		<g>
			<path class="st0" d="M55.09,62.53c-0.39-0.39-0.93-0.61-1.48-0.61c-0.55,0-1.09,0.22-1.48,0.61c-0.39,0.39-0.61,0.93-0.61,1.48
				c0,0.55,0.22,1.09,0.61,1.48c0.39,0.39,0.93,0.61,1.48,0.61c0.55,0,1.09-0.22,1.48-0.61c0.39-0.39,0.61-0.93,0.61-1.48
				C55.7,63.46,55.48,62.92,55.09,62.53z"/>
		</g>
	</g>
	<g>
		<g>
			<path class="st0" d="M53.61,0c-1.16,0-2.09,0.94-2.09,2.09v3.13c0,1.16,0.94,2.09,2.09,2.09c1.16,0,2.09-0.94,2.09-2.09V2.09
				C55.7,0.94,54.76,0,53.61,0z"/>
		</g>
	</g>
	<g>
		<g>
			<path class="st0" d="M45.89,6.83l-2.2-2.19c-0.82-0.82-2.14-0.82-2.96,0c-0.82,0.82-0.82,2.14,0,2.96l2.2,2.19
				c0.41,0.41,0.94,0.61,1.48,0.61c0.54,0,1.07-0.2,1.48-0.61C46.71,8.97,46.71,7.65,45.89,6.83z"/>
		</g>
	</g>
	<g>
		<g>
			<path class="st0" d="M66.43,4.69c-0.82-0.82-2.14-0.82-2.96,0l-2.18,2.18c-0.82,0.82-0.82,2.14,0,2.96
				c0.41,0.41,0.94,0.61,1.48,0.61c0.54,0,1.07-0.2,1.48-0.61l2.18-2.18C67.25,6.83,67.25,5.51,66.43,4.69z"/>
		</g>
	</g>
</g>
</svg>
