<?xml version="1.0" encoding="utf-8"?>
<!-- Generator: Adobe Illustrator 24.3.0, SVG Export Plug-In . SVG Version: 6.00 Build 0)  -->
<svg version="1.1" id="Layer_1" xmlns="http://www.w3.org/2000/svg" xmlns:xlink="http://www.w3.org/1999/xlink" x="0px" y="0px"
	 viewBox="0 0 25.64 25.64" style="enable-background:new 0 0 25.64 25.64;" xml:space="preserve">
<style type="text/css">
	.st0{fill:#312C30;}
</style>
<g>
	<path class="st0" d="M12.82,0C5.75,0,0,5.75,0,12.82c0,7.07,5.75,12.82,12.82,12.82c7.07,0,12.82-5.75,12.82-12.82
		C25.64,5.75,19.89,0,12.82,0z M9.21,17.95c0,0.12-0.09,0.21-0.21,0.21H6.57c-0.12,0-0.21-0.09-0.21-0.21V9.82
		c0-0.12,0.09-0.21,0.21-0.21H9c0.12,0,0.21,0.09,0.21,0.21V17.95z M7.7,8.52C6.86,8.52,6.18,7.84,6.18,7S6.86,5.48,7.7,5.48
		c0.84,0,1.52,0.68,1.52,1.52S8.54,8.52,7.7,8.52z M19.46,17.95c0,0.12-0.09,0.21-0.21,0.21h-2.42c-0.12,0-0.21-0.09-0.21-0.21
		v-4.37c0-1.15-0.41-1.93-1.44-1.93c-0.79,0-1.25,0.53-1.46,1.04c-0.07,0.18-0.09,0.44-0.09,0.69v4.57c0,0.12-0.09,0.21-0.21,0.21
		h-2.42c-0.12,0-0.21-0.09-0.21-0.21c0.01-1.16,0.03-6.81,0.01-8.13c0-0.12,0.09-0.21,0.21-0.21h2.42c0.12,0,0.21,0.09,0.21,0.21v1
		c0.38-0.58,1.05-1.41,2.56-1.41c1.87,0,3.27,1.22,3.27,3.85V17.95z"/>
	<path class="st0" d="M13.63,10.85v-0.03c-0.01,0.01-0.01,0.02-0.02,0.03H13.63z"/>
</g>
</svg>
