<?xml version="1.0" encoding="utf-8"?>
<!-- Generator: Adobe Illustrator 24.3.0, SVG Export Plug-In . SVG Version: 6.00 Build 0)  -->
<svg version="1.1" id="Layer_1" xmlns="http://www.w3.org/2000/svg" xmlns:xlink="http://www.w3.org/1999/xlink" x="0px" y="0px"
	 viewBox="0 0 25.64 25.64" style="enable-background:new 0 0 25.64 25.64;" xml:space="preserve">
<style type="text/css">
	.st0{fill:#312C30;}
</style>
<path class="st0" d="M12.82,0C5.75,0,0,5.75,0,12.82c0,7.07,5.75,12.82,12.82,12.82c7.07,0,12.82-5.75,12.82-12.82
	C25.64,5.75,19.89,0,12.82,0z M20.24,8.15c0,0.04,0,0.13-0.07,0.24c-0.35,0.47-0.72,0.89-1.19,1.24c-0.07,0.05-0.18,0.1-0.18,0.2
	c0,2.47-0.63,4.94-2.43,6.72c-2.29,2.28-5.73,2.9-8.78,2.05c-0.59-0.16-1.16-0.39-1.7-0.68c-0.18-0.1-0.36-0.2-0.53-0.31
	c-0.04-0.04-0.08-0.07-0.04-0.09c0.04-0.02,0.07-0.02,0.2,0c0.85,0.08,1.73-0.04,2.54-0.33c0.44-0.16,1.4-0.47,1.67-0.89
	c0.01-0.01,0.01-0.01,0.02-0.02c-0.11-0.03-0.22-0.03-0.33-0.05c-0.83-0.24-1.94-0.65-2.45-2.05c-0.03-0.08,0-0.12,0.08-0.11
	c0.68,0.05,0.93,0.02,1.17-0.04c-0.13-0.02-0.27-0.07-0.4-0.12c-1.04-0.4-1.81-1.42-1.95-2.52c-0.02-0.13-0.03-0.24-0.02-0.35
	C5.87,10.98,5.9,10.96,5.97,11c0.54,0.28,1.14,0.34,1.19,0.33c-0.13-0.1-0.26-0.22-0.38-0.33c-0.91-0.86-1.26-2.6-0.53-3.69
	c0.06-0.09,0.1-0.09,0.17-0.01c1.66,1.89,3.7,2.77,6.16,3.14c0.07,0.01,0.07,0,0.06-0.07c-0.06-0.43-0.07-0.86,0.03-1.29
	c0.11-0.44,0.32-0.86,0.61-1.22c0.28-0.34,0.63-0.63,1.02-0.83c0.39-0.2,0.82-0.33,1.26-0.36c0.45-0.03,0.91,0.04,1.33,0.21
	c0.32,0.13,0.6,0.31,0.87,0.53c0.06,0.05,0.1,0.1,0.16,0.16c0.03,0.03,0.07,0.05,0.12,0.03c0.63-0.16,1.22-0.38,1.79-0.69
	c0.03-0.01,0.05-0.02,0.08-0.01c0.03,0.02,0.02,0.05,0,0.08c-0.1,0.33-0.28,0.64-0.5,0.92c-0.14,0.18-0.5,0.62-0.74,0.66
	c0.51-0.09,1.03-0.22,1.51-0.43c0.06-0.03,0.06-0.04,0.06,0C20.24,8.14,20.24,8.15,20.24,8.15z"/>
</svg>
