<?xml version="1.0" encoding="utf-8"?>
<!-- Generator: Adobe Illustrator 24.0.1, SVG Export Plug-In . SVG Version: 6.00 Build 0)  -->
<svg version="1.1" id="Layer_1" xmlns="http://www.w3.org/2000/svg" xmlns:xlink="http://www.w3.org/1999/xlink" x="0px" y="0px"
	 viewBox="0 0 600 291.64" style="enable-background:new 0 0 600 291.64;" xml:space="preserve">
<style type="text/css">
	.st0{fill:#BF256C;}
	.st1{fill:#FFFFFF;}
	.st2{fill:#88256C;}
	.st3{fill:#B5B7B9;}
	.st4{fill:#404040;}
	.st5{fill:#999999;}
	.st6{display:none;}
	.st7{display:inline;}
	.st8{fill:#595959;}
</style>
<g>
	<g>
		<path class="st0" d="M168.98,108.15c-1.04-3.73-2.77-6.25-5.15-7.51c-2.79-1.48-5.99-1.34-9.51,0.41
			c-3.68,1.82-9.25,6.2-14.92,16.7c-4.66,8.63-8.38,19.52-11.08,32.46c-0.85,5.07-1.51,8.16-1.59,8.55l-13.3-2.54
			c0.45-2.75,0.95-5.43,1.48-8.04c1.86-11.14,4.8-32.92,4.02-55.77c-0.64-18.79-3.63-34.58-8.87-46.93
			c-2.99-7.04-6.76-13-11.19-17.7c-4.75-5.04-10.44-8.81-16.9-11.18c-0.12-0.04-0.24-0.08-0.36-0.13
			c-14.88,9.17-45.65,34.59-38.78,85.33c7.35,54.31,40.41,97.74,52.2,111.75c0.37-0.72,0.87-1.38,1.52-1.95l27.27-24.04l0.08-0.07
			c0.26-0.22,26.54-22.1,37.31-40.05c3.58-5.97,6.34-13.25,7.76-20.5C170.36,119.79,170.37,113.12,168.98,108.15z"/>
		<path class="st1" d="M105.86,125.48c-1.49-0.11-2.79,1.01-2.9,2.51c-0.1,1.36-0.2,2.74-0.31,4.1c-0.12,1.49,0.99,2.8,2.48,2.92
			c0.07,0.01,0.15,0.01,0.22,0.01c1.4,0,2.58-1.07,2.7-2.49c0.11-1.38,0.22-2.77,0.32-4.15
			C108.48,126.88,107.35,125.59,105.86,125.48z"/>
		<path class="st1" d="M90.08,38.96c1.39,1.17,4.8,5.74,7.74,14.66c6.18,18.79,6.58,44.37,5.82,62.53c-0.06,1.49,1.1,2.76,2.59,2.82
			c0.04,0,0.08,0,0.11,0c1.44,0,2.64-1.14,2.71-2.6c1.15-27.59-1-49.56-6.38-65.31c-4.12-12.04-8.7-15.93-9.21-16.34
			c-1.17-0.93-2.88-0.73-3.81,0.44C88.73,36.34,88.92,38.03,90.08,38.96z"/>
		<path class="st1" d="M146.38,150.02c0.46,0.3,0.98,0.45,1.49,0.45c0.88,0,1.74-0.43,2.26-1.22c0.26-0.39,0.52-0.79,0.76-1.18
			c0.8-1.27,0.42-2.94-0.85-3.74c-1.27-0.8-2.94-0.42-3.74,0.85c-0.22,0.36-0.46,0.72-0.7,1.08
			C144.79,147.52,145.13,149.2,146.38,150.02z"/>
		<path class="st1" d="M151.41,141.77c0.37,0.17,0.76,0.26,1.15,0.26c1.02,0,1.99-0.58,2.45-1.56c7.24-15.44,5.41-28.15,5.33-28.69
			c-0.23-1.48-1.61-2.49-3.09-2.27c-1.48,0.23-2.5,1.61-2.27,3.09c0.02,0.11,1.68,11.61-4.88,25.57
			C149.48,139.52,150.06,141.14,151.41,141.77z"/>
		<path class="st2" d="M56.98,14.66c-7.22,1.83-13.9,5.91-19.84,12.13c-5.84,6.1-10.77,14.02-14.68,23.54
			c-3.91,9.54-6.58,20.18-7.93,31.62c-2.85,24.12,0.53,49.21,9.5,70.63c6.62,15.8,15.81,32.19,27.29,48.71
			c8.09,11.63,17.33,23.35,27.51,34.89l17.08-15.03c-1.89-2.16-2.16-5.18-0.9-7.59c-11.78-14.01-44.84-57.43-52.2-111.75
			C35.95,51.06,66.71,25.64,81.6,16.47c-5.39-1.94-10.61-2.92-15.63-2.92C62.89,13.56,59.89,13.92,56.98,14.66z"/>
		<path class="st1" d="M155.58,223.85l-37.02,32.58l-18-19.58l37.34-32.44l-5.33-5.86c-0.11-0.12-0.22-0.25-0.32-0.37l-26.75,23.58
			c-2.58,2.28-6.4,2.23-8.93,0.03c-0.2-0.18-0.4-0.36-0.58-0.57c-0.01-0.01-0.02-0.02-0.02-0.02c-0.01-0.01-0.02-0.02-0.03-0.03
			c-0.01-0.01-0.01-0.02-0.02-0.03l-17.08,15.03c0.07,0.08,0.15,0.16,0.22,0.24c1.38,1.56,2.77,3.11,4.18,4.66
			c14.11,15.51,26.54,26.94,32.88,32.53l46.05-42.51L155.58,223.85z"/>
		<polygon class="st3" points="108.62,237.3 118.97,248.57 151.79,219.68 141.69,208.57 		"/>
		<path class="st4" d="M172.81,154.41c4.37-7.29,7.72-16.12,9.44-24.86c1.83-9.32,1.75-17.98-0.22-25.03
			c-2.05-7.35-6.15-12.83-11.86-15.85c-6.67-3.53-14.43-3.44-21.87,0.24c-5.65,2.8-10.99,7.64-15.72,14.2
			c0.04-3.58,0.01-7.23-0.12-10.92c-0.68-20.51-4.01-37.98-9.9-51.9C114.85,22.05,102.76,9.8,86.63,3.88
			C75.19-0.32,64.1-1.12,53.66,1.52c-9.73,2.46-18.58,7.81-26.32,15.9C20.33,24.76,14.47,34.1,9.92,45.19
			C5.55,55.86,2.57,67.7,1.08,80.36c-3.12,26.41,0.6,53.91,10.46,77.45c6.99,16.68,16.64,33.91,28.66,51.2
			c9.57,13.77,20.68,27.62,33,41.17c20.98,23.07,38.05,37.13,38.77,37.72l4.56,3.74l64.7-59.72l-38.63-42.49
			c-0.07-0.07-0.14-0.15-0.21-0.22C151.69,180.61,165.27,166.99,172.81,154.41z M151.79,219.68l-32.82,28.88l-10.35-11.27
			l33.07-28.73L151.79,219.68z M123.89,187.49l-0.08,0.07L96.53,211.6c-0.64,0.57-1.14,1.23-1.52,1.95c-1.25,2.4-0.99,5.43,0.9,7.59
			c0.01,0.01,0.01,0.02,0.02,0.03c0.01,0.01,0.02,0.02,0.03,0.03c0.01,0.01,0.02,0.02,0.02,0.02c0.18,0.2,0.38,0.39,0.58,0.57
			c2.52,2.2,6.35,2.25,8.93-0.03l26.75-23.58c0.1,0.13,0.21,0.25,0.32,0.37l5.33,5.86l-37.34,32.44l18,19.58l37.02-32.58l6.58,7.24
			l-46.05,42.51c-6.34-5.59-18.77-17.02-32.88-32.53c-1.41-1.55-2.8-3.1-4.18-4.66c-0.07-0.08-0.15-0.16-0.22-0.24
			c-10.18-11.54-19.42-23.25-27.51-34.89c-11.49-16.52-20.67-32.9-27.29-48.71c-8.98-21.42-12.35-46.5-9.5-70.63
			c1.35-11.44,4.02-22.08,7.93-31.62c3.9-9.52,8.84-17.44,14.68-23.54c5.95-6.22,12.63-10.3,19.84-12.13
			c2.91-0.74,5.91-1.1,8.99-1.1c5.01,0,10.24,0.98,15.63,2.92c0.12,0.04,0.24,0.08,0.36,0.13c6.46,2.37,12.15,6.13,16.9,11.18
			c4.43,4.7,8.2,10.66,11.19,17.7c5.25,12.35,8.23,28.14,8.87,46.93c0.78,22.85-2.16,44.63-4.02,55.77
			c-0.53,2.61-1.03,5.29-1.48,8.04l13.3,2.54c0.08-0.39,0.75-3.48,1.59-8.55c2.7-12.93,6.41-23.82,11.08-32.46
			c5.68-10.51,11.25-14.88,14.92-16.7c3.52-1.75,6.72-1.88,9.51-0.41c2.38,1.26,4.11,3.79,5.15,7.51
			c1.38,4.97,1.37,11.64-0.03,18.79c-1.42,7.24-4.18,14.52-7.76,20.5C150.42,165.4,124.15,187.27,123.89,187.49z"/>
	</g>
	<g>
		<g>
			<g>
				<g>
					<path class="st5" d="M260.53,164.28l0.24,3.53h32.59l0.95-2.38c4.81-12.05,9.71-24.05,14.55-35.65
						c3.22-7.72,6.67-15.86,10.27-24.24c1.39,8.95,2.69,17.78,3.85,26.28c1.63,12.09,2.96,23.06,3.94,32.6l0.35,3.4h32.12l0.95-2.38
						c7.28-18.26,15.14-36.89,23.36-55.36c8-18.02,16.52-36.27,25.32-54.25l2.67-5.45h-35.26l-0.76,2.78
						c-2.76,10.07-6.77,22.15-11.93,35.9c-3.91,10.47-8.56,22.15-13.84,34.76c-1.19-7.73-2.37-16.02-3.51-24.69
						c-1.78-13.77-3.49-29.03-5.08-45.34l-0.34-3.42h-24.48l-0.92,2.44c-5.46,14.33-11.22,28.6-17.1,42.41
						c-3.87,9.11-7.87,18.18-11.91,27.02c-1.21-11.21-2.18-21.52-2.9-30.68c-1.02-12.9-1.51-22.89-1.51-30.55
						c0-2.18,0.04-3.61,0.06-4.28c0.03-0.98,0.03-1.85,0.03-2.59v-3.78h-37.09l0.88,4.51c3.63,18.64,6.69,37.31,9.09,55.48
						C257.51,128.51,259.34,146.66,260.53,164.28z"/>
					<path class="st5" d="M573.45,74.04c3.74,0,7.4,0.44,10.89,1.3c3.44,0.84,6.73,2.1,9.8,3.74l5.62,3l-0.26-30.62l-2.92-0.66
						c-3.91-0.89-7.85-1.56-12.03-2.07c-15.42-1.76-29.34-0.17-41.09,4.77c-8.72,3.68-16.33,9.17-22.61,16.33
						c-5.82,6.73-10.32,14.61-13.36,23.42c-3.01,8.71-4.54,18.2-4.54,28.21c0,15.41,4.48,27.55,13.33,36.09
						c8.79,8.49,21.38,12.79,37.43,12.79c5.64,0,11.3-0.61,16.83-1.8c5.56-1.19,10.96-2.96,16.03-5.24l1.6-0.72l8.43-29.1l-7.5,3.42
						c-5.3,2.42-10.45,4.27-15.31,5.5c-4.68,1.18-9.18,1.78-13.38,1.78c-7.92,0-13.88-2.04-17.71-6.05
						c-3.9-4.1-5.87-10.45-5.87-18.88c0-13.76,3.43-24.91,10.21-33.15C553.71,77.98,562.35,74.04,573.45,74.04z"/>
					<path class="st5" d="M502.07,78.08c0-6.3-1.98-11.73-5.88-16.13c-3.83-4.27-9.2-7.23-15.95-8.8
						c-4.21-1.02-9.17-1.73-15.15-2.18c-5.76-0.41-15.69-0.61-29.51-0.61h-21.65l-0.22,3.56c-1.19,19.83-3.27,38.98-6.16,56.92
						c-2.86,17.92-6.65,35.48-11.27,52.17l-1.33,4.79H423c15.82,0,27.63-0.55,35.09-1.65c7.66-1.12,14.26-3.07,19.62-5.78
						c6.9-3.54,12.25-8.01,15.88-13.29c3.74-5.45,5.64-11.62,5.64-18.35c0-7.59-2.7-13.87-8.02-18.66
						c-2.28-2.04-5.03-3.77-8.21-5.17c4.15-1.77,7.67-3.98,10.47-6.57C499.18,93.09,502.07,86.27,502.07,78.08z M460,139.91
						c-4.78,2.72-12.7,4.11-23.53,4.11h-1.64c0.28-2.14,0.63-4.61,1.05-7.37c0.62-4.3,1.62-10.75,3.06-20.02
						c0.87-0.02,2.04,0.04,3.53-0.02c8.68,0,15.05,1.13,18.93,3.36c3.32,1.94,4.8,4.65,4.8,8.77
						C466.2,133.89,464.17,137.55,460,139.91z M463.79,92.12L463.79,92.12c-4.04,2.53-10.43,3.82-19,3.82l-0.38,0
						c-0.66,0-1.36,0-2.09-0.02c-0.07,0-0.15-0.01-0.23-0.01c0.53-3.55,1.09-6.9,1.71-10.23c0.69-3.84,1.48-7.85,2.35-11.94l0.11,0
						c1.03-0.02,2.51-0.02,4.39-0.02c0.02,0,0.04,0,0.06,0c9.09,0,13.29,1.29,15.21,2.37c2.17,1.22,3.14,3.14,3.14,6.2
						C469.04,86.7,467.32,89.92,463.79,92.12z"/>
				</g>
			</g>
		</g>
		<g>
			<path class="st5" d="M289.73,228.7l7.05,7.48c-5.13,6.27-11.89,9.4-20.3,9.4c-7.6,0-13.93-2.35-19.01-7.05
				c-4.98-4.7-7.48-10.9-7.48-18.59c0-7.78,2.49-14.03,7.48-18.73c4.94-4.75,11.16-7.12,18.66-7.12c8.21,0,14.84,3.13,19.87,9.4
				l-7.12,7.26c-1.47-2.14-3.37-3.8-5.7-4.98c-2.33-1.19-4.84-1.78-7.55-1.78c-3.89,0-7.34,1.42-10.33,4.27
				c-2.94,2.8-4.42,6.62-4.42,11.46c0,4.94,1.47,8.83,4.42,11.68c2.89,2.85,6.53,4.27,10.9,4.27
				C281.8,235.68,286.31,233.36,289.73,228.7z"/>
			<path class="st5" d="M346.77,194.88h10.11l19.51,49.92h-10.97l-3.99-9.83h-19.3l-3.92,9.83h-10.97L346.77,194.88z M358.02,225.57
				l-6.2-16.31l-6.2,16.31H358.02z"/>
			<path class="st5" d="M451.45,244.8h-12.03l-9.83-16.02h-8.47v16.02h-10.61v-49.92h20.65c5.6,0,10.16,1.45,13.67,4.34
				c3.61,2.9,5.41,6.88,5.41,11.96c0,3.47-0.88,6.58-2.63,9.33c-1.76,2.75-4.15,4.84-7.19,6.27L451.45,244.8z M429.31,204.63h-8.19
				v14.46h8.19c6.93,0,10.4-2.44,10.4-7.34C439.7,207.01,436.24,204.63,429.31,204.63z"/>
			<path class="st5" d="M524.02,244.8H487.2v-49.92h36.82v9.76h-26.21v9.9h24.99v9.61h-24.99v10.9h26.21V244.8z"/>
			<path class="st5" d="M582.48,225.21l-6.12-1.07c-4.98-0.85-8.86-2.55-11.61-5.09c-2.75-2.54-4.13-5.83-4.13-9.86
				c0-4.6,1.8-8.26,5.41-10.97c3.61-2.75,7.95-4.13,13.03-4.13c7.79,0,14.19,2.66,19.23,7.98l-7.12,7.48
				c-3.8-3.85-8.02-5.77-12.68-5.77c-2.23,0-4.01,0.45-5.34,1.35c-1.33,0.9-1.99,2.09-1.99,3.56c0,2.66,2.37,4.42,7.12,5.27
				l4.91,0.78c11.2,1.8,16.81,7,16.81,15.6c0,4.56-1.83,8.24-5.48,11.04c-3.66,2.8-8.45,4.2-14.39,4.2c-4.27,0-8.21-0.87-11.82-2.6
				c-3.61-1.73-6.58-4.05-8.9-6.94l7.26-7.34c3.7,4.8,8.4,7.19,14.1,7.19c2.66,0,4.77-0.5,6.34-1.5c1.57-1,2.35-2.3,2.35-3.92
				C589.46,227.83,587.13,226.07,582.48,225.21z"/>
		</g>
	</g>
	<g class="st6">
		<g class="st7">
			<g>
				<g>
					<path class="st8" d="M260.53,164.28l0.24,3.53h32.59l0.95-2.38c4.81-12.05,9.71-24.05,14.55-35.65
						c3.22-7.72,6.67-15.86,10.27-24.24c1.39,8.95,2.69,17.78,3.85,26.28c1.63,12.09,2.96,23.06,3.94,32.6l0.35,3.4h32.12l0.95-2.38
						c7.28-18.26,15.14-36.89,23.36-55.36c8-18.02,16.52-36.27,25.32-54.25l2.67-5.45h-35.26l-0.76,2.78
						c-2.76,10.07-6.77,22.15-11.93,35.9c-3.91,10.47-8.56,22.15-13.84,34.76c-1.19-7.73-2.37-16.02-3.51-24.69
						c-1.78-13.77-3.49-29.03-5.08-45.34l-0.34-3.42h-24.48l-0.92,2.44c-5.46,14.33-11.22,28.6-17.1,42.41
						c-3.87,9.11-7.87,18.18-11.91,27.02c-1.21-11.21-2.18-21.52-2.9-30.68c-1.02-12.9-1.51-22.89-1.51-30.55
						c0-2.18,0.04-3.61,0.06-4.28c0.03-0.98,0.03-1.85,0.03-2.59v-3.78h-37.09l0.88,4.51c3.63,18.64,6.69,37.31,9.09,55.48
						C257.51,128.51,259.34,146.66,260.53,164.28z"/>
					<path class="st8" d="M573.45,74.04c3.74,0,7.4,0.44,10.89,1.3c3.44,0.84,6.73,2.1,9.8,3.74l5.62,3l-0.26-30.62l-2.92-0.66
						c-3.91-0.89-7.85-1.56-12.03-2.07c-15.42-1.76-29.34-0.17-41.09,4.77c-8.72,3.68-16.33,9.17-22.61,16.33
						c-5.82,6.73-10.32,14.61-13.36,23.42c-3.01,8.71-4.54,18.2-4.54,28.21c0,15.41,4.48,27.55,13.33,36.09
						c8.79,8.49,21.38,12.79,37.43,12.79c5.64,0,11.3-0.61,16.83-1.8c5.56-1.19,10.96-2.96,16.03-5.24l1.6-0.72l8.43-29.1l-7.5,3.42
						c-5.3,2.42-10.45,4.27-15.31,5.5c-4.68,1.18-9.18,1.78-13.38,1.78c-7.92,0-13.88-2.04-17.71-6.05
						c-3.9-4.1-5.87-10.45-5.87-18.88c0-13.76,3.43-24.91,10.21-33.15C553.71,77.98,562.35,74.04,573.45,74.04z"/>
					<path class="st8" d="M502.07,78.08c0-6.3-1.98-11.73-5.88-16.13c-3.83-4.27-9.2-7.23-15.95-8.8
						c-4.21-1.02-9.17-1.73-15.15-2.18c-5.76-0.41-15.69-0.61-29.51-0.61h-21.65l-0.22,3.56c-1.19,19.83-3.27,38.98-6.16,56.92
						c-2.86,17.92-6.65,35.48-11.27,52.17l-1.33,4.79H423c15.82,0,27.63-0.55,35.09-1.65c7.66-1.12,14.26-3.07,19.62-5.78
						c6.9-3.54,12.25-8.01,15.88-13.29c3.74-5.45,5.64-11.62,5.64-18.35c0-7.59-2.7-13.87-8.02-18.66
						c-2.28-2.04-5.03-3.77-8.21-5.17c4.15-1.77,7.67-3.98,10.47-6.57C499.18,93.09,502.07,86.27,502.07,78.08z M460,139.91
						c-4.78,2.72-12.7,4.11-23.53,4.11h-1.64c0.28-2.14,0.63-4.61,1.05-7.37c0.62-4.3,1.62-10.75,3.06-20.02
						c0.87-0.02,2.04,0.04,3.53-0.02c8.68,0,15.05,1.13,18.93,3.36c3.32,1.94,4.8,4.65,4.8,8.77
						C466.2,133.89,464.17,137.55,460,139.91z M463.79,92.12L463.79,92.12c-4.04,2.53-10.43,3.82-19,3.82l-0.38,0
						c-0.66,0-1.36,0-2.09-0.02c-0.07,0-0.15-0.01-0.23-0.01c0.53-3.55,1.09-6.9,1.71-10.23c0.69-3.84,1.48-7.85,2.35-11.94l0.11,0
						c1.03-0.02,2.51-0.02,4.39-0.02c0.02,0,0.04,0,0.06,0c9.09,0,13.29,1.29,15.21,2.37c2.17,1.22,3.14,3.14,3.14,6.2
						C469.04,86.7,467.32,89.92,463.79,92.12z"/>
				</g>
			</g>
		</g>
		<g class="st7">
			<path class="st8" d="M289.73,228.7l7.05,7.48c-5.13,6.27-11.89,9.4-20.3,9.4c-7.6,0-13.93-2.35-19.01-7.05
				c-4.98-4.7-7.48-10.9-7.48-18.59c0-7.78,2.49-14.03,7.48-18.73c4.94-4.75,11.16-7.12,18.66-7.12c8.21,0,14.84,3.13,19.87,9.4
				l-7.12,7.26c-1.47-2.14-3.37-3.8-5.7-4.98c-2.33-1.19-4.84-1.78-7.55-1.78c-3.89,0-7.34,1.42-10.33,4.27
				c-2.94,2.8-4.42,6.62-4.42,11.46c0,4.94,1.47,8.83,4.42,11.68c2.89,2.85,6.53,4.27,10.9,4.27
				C281.8,235.68,286.31,233.36,289.73,228.7z"/>
			<path class="st8" d="M346.77,194.88h10.11l19.51,49.92h-10.97l-3.99-9.83h-19.3l-3.92,9.83h-10.97L346.77,194.88z M358.02,225.57
				l-6.2-16.31l-6.2,16.31H358.02z"/>
			<path class="st8" d="M451.45,244.8h-12.03l-9.83-16.02h-8.47v16.02h-10.61v-49.92h20.65c5.6,0,10.16,1.45,13.67,4.34
				c3.61,2.9,5.41,6.88,5.41,11.96c0,3.47-0.88,6.58-2.63,9.33c-1.76,2.75-4.15,4.84-7.19,6.27L451.45,244.8z M429.31,204.63h-8.19
				v14.46h8.19c6.93,0,10.4-2.44,10.4-7.34C439.7,207.01,436.24,204.63,429.31,204.63z"/>
			<path class="st8" d="M524.02,244.8H487.2v-49.92h36.82v9.76h-26.21v9.9h24.99v9.61h-24.99v10.9h26.21V244.8z"/>
			<path class="st8" d="M582.48,225.21l-6.12-1.07c-4.98-0.85-8.86-2.55-11.61-5.09c-2.75-2.54-4.13-5.83-4.13-9.86
				c0-4.6,1.8-8.26,5.41-10.97c3.61-2.75,7.95-4.13,13.03-4.13c7.79,0,14.19,2.66,19.23,7.98l-7.12,7.48
				c-3.8-3.85-8.02-5.77-12.68-5.77c-2.23,0-4.01,0.45-5.34,1.35c-1.33,0.9-1.99,2.09-1.99,3.56c0,2.66,2.37,4.42,7.12,5.27
				l4.91,0.78c11.2,1.8,16.81,7,16.81,15.6c0,4.56-1.83,8.24-5.48,11.04c-3.66,2.8-8.45,4.2-14.39,4.2c-4.27,0-8.21-0.87-11.82-2.6
				c-3.61-1.73-6.58-4.05-8.9-6.94l7.26-7.34c3.7,4.8,8.4,7.19,14.1,7.19c2.66,0,4.77-0.5,6.34-1.5c1.57-1,2.35-2.3,2.35-3.92
				C589.46,227.83,587.13,226.07,582.48,225.21z"/>
		</g>
	</g>
</g>
</svg>
